<svg id='Web_Marketing_24' width='24' height='24' viewBox='0 0 24 24' xmlns='http://www.w3.org/2000/svg' xmlns:xlink='http://www.w3.org/1999/xlink'><rect width='24' height='24' stroke='none' fill='#000000' opacity='0'/>


<g transform="matrix(0.16 0 0 0.16 12 12)" >
<g style="" >
<g transform="matrix(1 0 0 1 0 0)" id="Layer_1" >
<path style="stroke: none; stroke-width: 1; stroke-dasharray: none; stroke-linecap: butt; stroke-dashoffset: 0; stroke-linejoin: miter; stroke-miterlimit: 4; fill: rgb(255,255,255); fill-rule: nonzero; opacity: 1;" transform=" translate(-64, -64)" d="M 114 124 L 14 124 C 8.5 124 4 119.5 4 114 L 4 14 C 4 8.5 8.5 4 14 4 L 114 4 C 119.5 4 124 8.5 124 14 L 124 114 C 124 119.5 119.5 124 114 124 z" stroke-linecap="round" />
</g>
<g transform="matrix(1 0 0 1 -48 -48)" id="Layer_1" >
<circle style="stroke: none; stroke-width: 1; stroke-dasharray: none; stroke-linecap: butt; stroke-dashoffset: 0; stroke-linejoin: miter; stroke-miterlimit: 4; fill: rgb(68,75,84); fill-rule: nonzero; opacity: 1;" cx="0" cy="0" r="3" />
</g>
<g transform="matrix(1 0 0 1 -38 -48)" id="Layer_1" >
<circle style="stroke: none; stroke-width: 1; stroke-dasharray: none; stroke-linecap: butt; stroke-dashoffset: 0; stroke-linejoin: miter; stroke-miterlimit: 4; fill: rgb(68,75,84); fill-rule: nonzero; opacity: 1;" cx="0" cy="0" r="3" />
</g>
<g transform="matrix(1 0 0 1 -28 -48)" id="Layer_1" >
<circle style="stroke: none; stroke-width: 1; stroke-dasharray: none; stroke-linecap: butt; stroke-dashoffset: 0; stroke-linejoin: miter; stroke-miterlimit: 4; fill: rgb(68,75,84); fill-rule: nonzero; opacity: 1;" cx="0" cy="0" r="3" />
</g>
<g transform="matrix(1 0 0 1 3.97 15.03)" id="Layer_1" >
<path style="stroke: none; stroke-width: 1; stroke-dasharray: none; stroke-linecap: butt; stroke-dashoffset: 0; stroke-linejoin: miter; stroke-miterlimit: 4; fill: rgb(113,194,255); fill-rule: nonzero; opacity: 1;" transform=" translate(-67.97, -79.03)" d="M 106 53.9 C 106 53.8 106 53.6 106 53.5 C 106 53.5 106 53.5 106 53.5 C 105.9 53 105.7 52.5 105.3 52 C 104.39999999999999 51 102.89999999999999 50.8 101.8 51.4 L 93.8 55.4 C 92.3 56.1 91.7 57.9 92.5 59.4 C 93.1 60.5 94.3 61.199999999999996 95.5 61 L 72.4 99.2 L 45.1 71.9 C 44.4 71.2 43.5 70.9 42.5 71.10000000000001 C 41.6 71.2 40.7 71.80000000000001 40.3 72.7 L 30.299999999999997 91.7 C 29.499999999999996 93.2 30.099999999999998 95 31.599999999999998 95.8 C 33.099999999999994 96.6 34.9 96 35.699999999999996 94.5 L 43.8 79 L 70.9 106.1 C 71.5 106.69999999999999 72.2 107 73 107 C 73.1 107 73.2 107 73.4 107 C 74.30000000000001 106.9 75.10000000000001 106.4 75.60000000000001 105.6 L 100.10000000000001 64.69999999999999 C 100.4 65.99999999999999 101.60000000000001 66.99999999999999 103.00000000000001 66.99999999999999 C 104.70000000000002 66.99999999999999 106.00000000000001 65.69999999999999 106.00000000000001 63.999999999999986 L 106.00000000000001 54 C 106 54 106 53.9 106 53.9 z" stroke-linecap="round" />
</g>
<g transform="matrix(1 0 0 1 0 0)" id="Layer_1" >
<path style="stroke: none; stroke-width: 1; stroke-dasharray: none; stroke-linecap: butt; stroke-dashoffset: 0; stroke-linejoin: miter; stroke-miterlimit: 4; fill: rgb(68,75,84); fill-rule: nonzero; opacity: 1;" transform=" translate(-64, -64)" d="M 114 127 L 14 127 C 6.8 127 1 121.2 1 114 L 1 41 C 1 39.3 2.3 38 4 38 C 5.7 38 7 39.3 7 41 L 7 114 C 7 117.9 10.1 121 14 121 L 114 121 C 117.9 121 121 117.9 121 114 L 121 14 C 121 10.1 117.9 7 114 7 L 14 7 C 10.1 7 7 10.1 7 14 L 7 25 L 111 25 C 112.7 25 114 26.3 114 28 C 114 29.7 112.7 31 111 31 L 4 31 C 2.3 31 1 29.7 1 28 L 1 14 C 1 6.8 6.8 1 14 1 L 114 1 C 121.2 1 127 6.8 127 14 L 127 114 C 127 121.2 121.2 127 114 127 z" stroke-linecap="round" />
</g>
<g transform="matrix(1 0 0 1 -37 40)" id="Layer_1" >
<circle style="stroke: none; stroke-width: 1; stroke-dasharray: none; stroke-linecap: butt; stroke-dashoffset: 0; stroke-linejoin: miter; stroke-miterlimit: 4; fill: rgb(113,194,255); fill-rule: nonzero; opacity: 1;" cx="0" cy="0" r="3" />
</g>
</g>
</g>
</svg>